<?xml version="1.0" encoding="UTF-8" standalone="no"?>
<!DOCTYPE svg PUBLIC "-//W3C//DTD SVG 1.1//EN"
 "http://www.w3.org/Graphics/SVG/1.1/DTD/svg11.dtd">
<!-- Generated by graphviz version 9.0.0 (20230911.1827)
 -->
<!-- Title: snakemake_dag Pages: 1 -->
<svg width="206pt" height="476pt"
 viewBox="0.00 0.00 205.62 476.00" xmlns="http://www.w3.org/2000/svg" xmlns:xlink="http://www.w3.org/1999/xlink">
<g id="graph0" class="graph" transform="scale(1 1) rotate(0) translate(4 472)">
<title>snakemake_dag</title>
<polygon fill="white" stroke="none" points="-4,4 -4,-472 201.62,-472 201.62,4 -4,4"/>
<!-- 0 -->
<g id="node1" class="node">
<title>0</title>
<polygon fill="#fcf3cf" stroke="black" stroke-width="2" points="132.25,-36 78.25,-36 78.25,0 132.25,0 132.25,-36"/>
<text text-anchor="middle" x="105.25" y="-15.62" font-family="sans" font-size="10.00">pipeline</text>
</g>
<!-- 1 -->
<g id="node2" class="node">
<title>1</title>
<polygon fill="#fcf3cf" stroke="black" stroke-width="2" points="91.25,-108 37.25,-108 37.25,-72 91.25,-72 91.25,-108"/>
<text text-anchor="middle" x="64.25" y="-87.62" font-family="sans" font-size="10.00">G4</text>
</g>
<!-- 1&#45;&gt;0 -->
<g id="edge2" class="edge">
<title>1&#45;&gt;0</title>
<path fill="none" stroke="black" stroke-width="2" d="M74.6,-71.34C78.74,-64.26 83.62,-55.92 88.26,-48"/>
<polygon fill="black" stroke="black" stroke-width="2" points="91.2,-49.91 93.23,-39.51 85.16,-46.37 91.2,-49.91"/>
</g>
<!-- 2 -->
<g id="node3" class="node">
<title>2</title>
<polygon fill="#fcf3cf" stroke="black" stroke-width="2" points="91,-180 25.5,-180 25.5,-144 91,-144 91,-180"/>
<text text-anchor="middle" x="58.25" y="-159.62" font-family="sans" font-size="10.00">build_fasta</text>
</g>
<!-- 2&#45;&gt;1 -->
<g id="edge3" class="edge">
<title>2&#45;&gt;1</title>
<path fill="none" stroke="black" stroke-width="2" d="M59.76,-143.34C60.33,-136.75 60.99,-129.08 61.62,-121.67"/>
<polygon fill="black" stroke="black" stroke-width="2" points="65.09,-122.18 62.46,-111.92 58.12,-121.58 65.09,-122.18"/>
</g>
<!-- 3 -->
<g id="node4" class="node">
<title>3</title>
<polygon fill="#fcf3cf" stroke="black" stroke-width="2" points="109.38,-252 7.13,-252 7.13,-216 109.38,-216 109.38,-252"/>
<text text-anchor="middle" x="58.25" y="-231.62" font-family="sans" font-size="10.00">unique_candidates</text>
</g>
<!-- 3&#45;&gt;2 -->
<g id="edge4" class="edge">
<title>3&#45;&gt;2</title>
<path fill="none" stroke="black" stroke-width="2" d="M58.25,-215.34C58.25,-208.75 58.25,-201.08 58.25,-193.67"/>
<polygon fill="black" stroke="black" stroke-width="2" points="61.75,-193.93 58.25,-183.93 54.75,-193.93 61.75,-193.93"/>
</g>
<!-- 4 -->
<g id="node5" class="node">
<title>4</title>
<polygon fill="#fcf3cf" stroke="black" stroke-width="2" points="91.75,-324 24.75,-324 24.75,-288 91.75,-288 91.75,-324"/>
<text text-anchor="middle" x="58.25" y="-303.62" font-family="sans" font-size="10.00">get_events</text>
</g>
<!-- 4&#45;&gt;3 -->
<g id="edge5" class="edge">
<title>4&#45;&gt;3</title>
<path fill="none" stroke="black" stroke-width="2" d="M58.25,-287.34C58.25,-280.75 58.25,-273.08 58.25,-265.67"/>
<polygon fill="black" stroke="black" stroke-width="2" points="61.75,-265.93 58.25,-255.93 54.75,-265.93 61.75,-265.93"/>
</g>
<!-- 5 -->
<g id="node6" class="node">
<title>5</title>
<polygon fill="#fcf3cf" stroke="black" stroke-width="2" points="116.5,-396 0,-396 0,-360 116.5,-360 116.5,-396"/>
<text text-anchor="middle" x="58.25" y="-375.62" font-family="sans" font-size="10.00">compute_correlations</text>
</g>
<!-- 5&#45;&gt;4 -->
<g id="edge6" class="edge">
<title>5&#45;&gt;4</title>
<path fill="none" stroke="black" stroke-width="2" d="M58.25,-359.34C58.25,-352.75 58.25,-345.08 58.25,-337.67"/>
<polygon fill="black" stroke="black" stroke-width="2" points="61.75,-337.93 58.25,-327.93 54.75,-337.93 61.75,-337.93"/>
</g>
<!-- 6 -->
<g id="node7" class="node">
<title>6</title>
<polygon fill="#fcf3cf" stroke="black" stroke-width="2" points="111.25,-468 5.25,-468 5.25,-432 111.25,-432 111.25,-468"/>
<text text-anchor="middle" x="58.25" y="-447.62" font-family="sans" font-size="10.00">build_normalisation</text>
</g>
<!-- 6&#45;&gt;5 -->
<g id="edge7" class="edge">
<title>6&#45;&gt;5</title>
<path fill="none" stroke="black" stroke-width="2" d="M58.25,-431.34C58.25,-424.75 58.25,-417.08 58.25,-409.67"/>
<polygon fill="black" stroke="black" stroke-width="2" points="61.75,-409.93 58.25,-399.93 54.75,-409.93 61.75,-409.93"/>
</g>
<!-- 7 -->
<g id="node8" class="node">
<title>7</title>
<polygon fill="#fcf3cf" stroke="black" stroke-width="2" points="174.25,-108 120.25,-108 120.25,-72 174.25,-72 174.25,-108"/>
<text text-anchor="middle" x="147.25" y="-87.62" font-family="sans" font-size="10.00">dot2svg</text>
</g>
<!-- 7&#45;&gt;0 -->
<g id="edge1" class="edge">
<title>7&#45;&gt;0</title>
<path fill="none" stroke="black" stroke-width="2" d="M136.65,-71.34C132.41,-64.26 127.4,-55.92 122.65,-48"/>
<polygon fill="black" stroke="black" stroke-width="2" points="125.69,-46.27 117.55,-39.5 119.69,-49.87 125.69,-46.27"/>
</g>
<!-- 8 -->
<g id="node9" class="node">
<title>8</title>
<polygon fill="#fcf3cf" stroke="black" stroke-width="2" points="197.62,-180 108.88,-180 108.88,-144 197.62,-144 197.62,-180"/>
<text text-anchor="middle" x="153.25" y="-159.62" font-family="sans" font-size="10.00">build_rulegraph</text>
</g>
<!-- 8&#45;&gt;7 -->
<g id="edge8" class="edge">
<title>8&#45;&gt;7</title>
<path fill="none" stroke="black" stroke-width="2" d="M151.74,-143.34C151.17,-136.75 150.51,-129.08 149.88,-121.67"/>
<polygon fill="black" stroke="black" stroke-width="2" points="153.38,-121.58 149.04,-111.92 146.41,-122.18 153.38,-121.58"/>
</g>
</g>
</svg>
